HIERARCHY
ROOT Hips
{
	OFFSET 0.000000 0.000000 0.000000 
	CHANNELS 6 Xposition Yposition Zposition Yrotation Zrotation Xrotation 
	JOINT Lumbar
	{
		OFFSET 0.000000 0.000000 0.000000 
		CHANNELS 3 Zrotation Xrotation Yrotation
		JOINT Neck
		{
			OFFSET 0.000000 0.445665 0.000000 
			CHANNELS 3 Zrotation Xrotation Yrotation
			End Site
			{
				OFFSET 0.000000 0.227535 0.000000 
			}
		}
		JOINT RightShoulder
		{
			OFFSET 0.019635 0.377685 0.194865 
			CHANNELS 3 Zrotation Xrotation Yrotation
			JOINT RightElbow
			{
				OFFSET 0.000000 -0.243375 0.000000 
				CHANNELS 2 Zrotation Yrotation
				JOINT RightWrist
				{
					OFFSET 0.000000 -0.264825 0.000000 
					CHANNELS 2 Zrotation Xrotation
					End Site
					{
						OFFSET 0.006600 -0.176220 0.000990 
					}
				}
			}
		}
		JOINT LeftShoulder
		{
			OFFSET 0.019635 0.377685 -0.194865 
			CHANNELS 3 Zrotation Xrotation Yrotation
			JOINT LeftElbow
			{
				OFFSET 0.000000 -0.243375 0.000000 
				CHANNELS 2 Zrotation Yrotation
				JOINT LeftWrist
				{
					OFFSET 0.000000 -0.264825 0.000000 
					CHANNELS 2 Zrotation Xrotation
					End Site
					{
						OFFSET 0.006600 -0.176220 -0.000990 
					}
				}
			}
		}
	}
	JOINT RightHip
	{
		OFFSET 0.052140 -0.069960 0.075570 
		CHANNELS 3 Zrotation Xrotation Yrotation
		JOINT RightKnee
		{
			OFFSET 0.000000 -0.402270 0.000000 
			CHANNELS 1 Zrotation
			JOINT RightAnkle
			{
				OFFSET 0.000000 -0.404085 0.000000 
				CHANNELS 3 Zrotation Xrotation Yrotation
				End Site
				{
					OFFSET 0.204105 -0.089430 0.008415 
				}
			}
		}
	}
	JOINT LeftHip
	{
		OFFSET 0.052140 -0.069960 -0.075570 
		CHANNELS 3 Zrotation Xrotation Yrotation
		JOINT LeftKnee
		{
			OFFSET 0.000000 -0.402270 0.000000 
			CHANNELS 1 Zrotation
			JOINT LeftAnkle
			{
				OFFSET 0.000000 -0.404085 0.000000 
				CHANNELS 3 Zrotation Xrotation Yrotation
				End Site
				{
					OFFSET 0.204105 -0.089430 -0.008415 
				}
			}
		}
	}
}
MOTION
Frames: 16
Frame Time: 0.02
-0.00054 -6e-05 -0.00014 898.69294 -43.39276 1.17345 56.50928 1.03091 1.94449 -6.13291 -2.45864 -0.14294 107.84377 -75.62531 -90.01128 11.57597 81.33293 -2.37718 -7.25134 135.15768 74.69032 90.33449 10.88459 -73.30178 1.52021 9.69796 47.60073 -0.58455 -2.50709 -19.22733 -7.96499 -5.13415 -3.40194 51.3819 0.56964 4.63419 -24.54965 -8.2208 4.97133 3.3339
-0.00059 -6e-05 -0.00039 898.74192 -43.41706 1.15084 56.50307 0.98944 1.86787 -6.08302 -2.40496 -0.14274 107.69827 -75.64503 -90.01128 11.56222 81.33515 -2.40497 -7.29262 135.42078 74.58066 90.07273 10.87743 -73.3252 1.53719 9.7365 47.61246 -0.60483 -2.84274 -19.22582 -7.93698 -5.10644 -3.38662 51.40437 0.6136 4.6773 -24.5446 -8.2062 4.95526 3.32701
-0.00064 -7e-05 -0.00063 898.79076 -43.44133 1.12829 56.49689 0.94808 1.79148 -6.03326 -2.35141 -0.14255 107.5534 -75.66475 -90.01128 11.54857 81.33738 -2.43261 -7.3338 135.68304 74.47131 89.81204 10.87024 -73.34852 1.55413 9.77488 47.6242 -0.62511 -3.17774 -19.22431 -7.90901 -5.07877 -3.37132 51.4268 0.65757 4.72093 -24.53955 -8.19158 4.93918 3.32011
-0.00069 -7e-05 -0.00088 898.83959 -43.46557 1.10575 56.49071 0.90673 1.71509 -5.98352 -2.29789 -0.14235 107.40839 -75.68442 -90.01129 11.53488 81.3396 -2.4603 -7.37496 135.94535 74.36199 89.55113 10.8631 -73.37187 1.57106 9.8133 47.63589 -0.64534 -3.51242 -19.22279 -7.88108 -5.05114 -3.35604 51.44921 0.70142 4.76403 -24.53451 -8.17701 4.92315 3.31324
-0.00075 -7e-05 -0.00113 898.88856 -43.48981 1.08314 56.48448 0.86528 1.6385 -5.93366 -2.24425 -0.14216 107.26265 -75.70404 -90.01129 11.52105 81.34181 -2.48818 -7.41621 136.20844 74.25236 89.28906 10.856 -73.39532 1.58801 9.85188 47.64757 -0.66557 -3.84762 -19.22129 -7.85311 -5.0235 -3.34074 51.47165 0.74518 4.80633 -24.52946 -8.16248 4.90717 3.30641
-0.0008 -7e-05 -0.00138 898.93711 -43.51412 1.06072 56.4784 0.82414 1.56253 -5.8841 -2.1909 -0.14197 107.1196 -75.72395 -90.01128 11.50778 81.34408 -2.5153 -7.45722 136.46889 74.1436 89.03127 10.84862 -73.41838 1.60493 9.88984 47.65943 -0.68595 -4.18218 -19.2198 -7.82515 -4.99577 -3.32543 51.49407 0.78958 4.8527 -24.52441 -8.14768 4.89086 3.29935
-0.00085 -7e-05 -0.00163 898.98647 -43.53831 1.03795 56.47206 0.78239 1.48538 -5.83401 -2.13703 -0.14177 106.97141 -75.74331 -90.0113 11.49342 81.34622 -2.54389 -7.49867 136.73455 74.03322 88.76518 10.84184 -73.4422 1.62192 9.92901 47.67087 -0.70598 -4.51762 -19.2182 -7.7972 -4.96825 -3.31017 51.51649 0.8327 4.891 -24.51936 -8.13342 4.87522 3.29275
-0.0009 -7e-05 -0.00187 899.03502 -43.56256 1.0155 56.46588 0.74123 1.40935 -5.78438 -2.08364 -0.14158 106.82772 -75.76311 -90.01127 11.48003 81.3485 -2.57117 -7.53975 136.99509 73.92433 88.50671 10.83443 -73.46531 1.6388 9.96707 47.6828 -0.72638 -4.85231 -19.21688 -7.76927 -4.94053 -3.29486 51.53894 0.87692 4.93642 -24.51435 -8.11871 4.859 3.28575
-0.00096 -7e-05 -0.00212 899.08288 -43.58707 0.99345 56.46024 0.70069 1.33452 -5.73538 -2.03078 -0.14139 106.69048 -75.78374 -90.0113 11.46798 81.35086 -2.5967 -7.58025 137.25073 73.81724 88.2576 10.82656 -73.4876 1.65573 10.00377 47.69492 -0.74704 -5.18604 -19.21519 -7.74122 -4.91257 -3.27949 51.56132 0.92285 4.99196 -24.50924 -8.10323 4.84191 3.27815
-0.00102 -8e-05 -0.00238 899.13559 -43.61065 0.96912 56.45253 0.65627 1.25225 -5.68296 -1.97471 -0.14116 106.51897 -75.80044 -90.01134 11.44867 81.35249 -2.63184 -7.62369 137.53863 73.69972 87.95476 10.82227 -73.51477 1.67294 10.0483 47.70473 -0.76564 -5.52519 -19.21349 -7.71345 -4.88599 -3.26448 51.5838 0.96003 4.99352 -24.50424 -8.09153 4.82934 3.27367
-0.00105 -7e-05 -0.0026 899.17751 -43.63581 0.94958 56.44854 0.62024 1.18606 -5.63763 -1.92553 -0.14103 106.41793 -75.82488 -90.01113 11.44439 81.35583 -2.647 -7.66117 137.75587 73.60426 87.76521 10.80984 -73.53152 1.68917 10.07628 47.72019 -0.78896 -5.85289 -19.21314 -7.68532 -4.8565 -3.2487 51.60624 1.01494 5.10617 -24.49928 -8.07226 4.80755 3.26282
-0.00108 -7e-05 -0.0027 899.19383 -43.66804 0.94345 56.45938 0.60589 1.16168 -5.61298 -1.89438 -0.14106 106.52533 -75.87422 -90.01015 11.48395 81.36367 -2.60412 -7.68079 137.79497 73.56786 87.88765 10.77873 -73.52043 1.70541 10.05719 47.74549 -0.82248 -6.14936 -19.2069 -7.65428 -4.81885 -3.23081 51.62726 1.12514 5.55014 -24.49251 -8.02875 4.75754 3.23247
-0.00107 -6e-05 -0.00275 899.19846 -43.70099 0.94206 56.47263 0.60018 1.15409 -5.59518 -1.87028 -0.14124 106.69927 -75.92995 -90.00756 11.53791 81.374 -2.54152 -7.69499 137.75772 73.55276 88.1218 10.73812 -73.49863 1.71976 10.02077 47.77781 -0.86138 -6.43434 -19.20459 -7.62326 -4.77827 -3.21214 51.64844 1.25194 6.10093 -24.48633 -7.97834 4.69884 3.19608
-0.00106 -5e-05 -0.00282 899.2059 -43.73225 0.93839 56.48236 0.59142 1.14006 -5.5735 -1.84359 -0.14134 106.83477 -75.98123 -90.00753 11.58387 81.38239 -2.4904 -7.71234 137.74826 73.53032 88.30649 10.70033 -73.48141 1.73373 9.99469 47.8103 -0.89946 -6.72441 -19.20572 -7.59345 -4.73916 -3.19387 51.67047 1.36676 6.58529 -24.48084 -7.93326 4.64602 3.16374
-0.00115 -6e-05 -0.00291 899.22425 -43.77067 0.93542 56.50429 0.57909 1.12018 -5.55525 -1.81447 -0.14128 107.01093 -76.04187 -90.00547 11.63691 81.39118 -2.42973 -7.72567 137.778 73.50267 88.49349 10.67155 -73.46592 1.7546 9.96239 47.82746 -0.93018 -7.01483 -19.18151 -7.55836 -4.69952 -3.17546 51.68883 1.5002 7.14462 -24.47043 -7.87862 4.58495 3.12585
-0.00099 -2e-05 -0.00293 899.21664 -43.7926 0.93189 56.49895 0.57613 1.11757 -5.53125 -1.7919 -0.14186 107.11076 -76.08098 -90.00012 11.6775 81.40352 -2.38285 -7.7475 137.69522 73.4851 88.6926 10.61837 -73.44364 1.75855 9.93367 47.87964 -0.97814 -7.30202 -19.21514 -7.53445 -4.66019 -3.15709 51.7146 1.59897 7.57404 -24.47152 -7.8426 4.53909 3.09814
